<?xml version="1.0" encoding="UTF-8"?>
<svg version="1.1" xmlns="http://www.w3.org/2000/svg" width="95" height="107">
<path d="M0 0 C31.35 0 62.7 0 95 0 C95 35.31 95 70.62 95 107 C63.65 107 32.3 107 0 107 C0 71.69 0 36.38 0 0 Z " fill="#FEFDFD" transform="translate(0,0)"/>
<path d="M0 0 C0.89847656 0.06832031 1.79695313 0.13664062 2.72265625 0.20703125 C3.61855469 0.26246094 4.51445313 0.31789063 5.4375 0.375 C7.78515625 1.01953125 7.78515625 1.01953125 9.1015625 3.0703125 C9.43994141 4.03517578 9.43994141 4.03517578 9.78515625 5.01953125 C10.77515625 5.01953125 11.76515625 5.01953125 12.78515625 5.01953125 C12.78515625 7.65953125 12.78515625 10.29953125 12.78515625 13.01953125 C13.80609375 12.27703125 13.80609375 12.27703125 14.84765625 11.51953125 C18.45723994 9.67633958 20.77965438 9.57447549 24.78515625 10.01953125 C26.72265625 11.08203125 26.72265625 11.08203125 27.78515625 13.01953125 C27.97265625 16.70703125 27.97265625 16.70703125 27.78515625 20.01953125 C28.44515625 20.01953125 29.10515625 20.01953125 29.78515625 20.01953125 C31.14167265 21.32927123 32.47073263 22.66755267 33.78515625 24.01953125 C34.69265625 24.57640625 35.60015625 25.13328125 36.53515625 25.70703125 C39.09468045 28.33765334 39.16974057 28.99358229 39.28515625 32.51953125 C39.11233602 35.21818563 38.8102233 36.96202448 37.72265625 39.45703125 C34.98493886 41.66486785 32.17660191 42.25165676 28.78515625 43.01953125 C29.28015625 43.76203125 29.28015625 43.76203125 29.78515625 44.51953125 C31.2061125 48.07192188 31.37664725 51.24488476 30.78515625 55.01953125 C28.54361864 58.78938996 25.75897361 59.38460824 21.72265625 60.45703125 C17.65343598 61.47034304 17.65343598 61.47034304 14.91015625 64.58203125 C14.53890625 65.38640625 14.16765625 66.19078125 13.78515625 67.01953125 C10.36421506 69.58523714 6.93742141 69.45661179 2.78515625 69.01953125 C0.03186604 67.2239072 -1.74111836 65.96698203 -3.21484375 63.01953125 C-3.66204872 57.76487286 -3.66204872 57.76487286 -2.08984375 55.14453125 C0.56550608 53.55132135 2.75305143 53.81739093 5.78515625 54.01953125 C6.28015625 56.49453125 6.28015625 56.49453125 6.78515625 59.01953125 C6.12515625 59.01953125 5.46515625 59.01953125 4.78515625 59.01953125 C4.78515625 58.02953125 4.78515625 57.03953125 4.78515625 56.01953125 C2.31015625 56.51453125 2.31015625 56.51453125 -0.21484375 57.01953125 C-0.38161657 60.43609149 -0.38161657 60.43609149 -0.21484375 64.01953125 C1.71158233 66.35157836 1.71158233 66.35157836 5.09765625 66.45703125 C8.86788997 66.31081032 8.86788997 66.31081032 11.66015625 63.95703125 C14.20249427 60.44262281 14.78515625 58.34452554 14.78515625 54.01953125 C13.54239952 51.07616005 12.52181469 49.53519216 9.91015625 47.70703125 C6.198422 46.50617605 3.45543007 46.79610664 -0.21484375 48.01953125 C-1.27200536 49.83569052 -1.27200536 49.83569052 -2.21484375 52.01953125 C-3.21378844 53.59611504 -4.2355541 55.15842501 -5.27734375 56.70703125 C-5.80457031 57.49464844 -6.33179687 58.28226563 -6.875 59.09375 C-8.21484375 61.01953125 -8.21484375 61.01953125 -9.21484375 62.01953125 C-15.81484375 61.41953125 -15.81484375 61.41953125 -18.21484375 59.01953125 C-18.48476281 56.3311374 -18.30221732 53.72811189 -18.21484375 51.01953125 C-18.87484375 50.68953125 -19.53484375 50.35953125 -20.21484375 50.01953125 C-15.92484375 50.01953125 -11.63484375 50.01953125 -7.21484375 50.01953125 C-7.21484375 50.34953125 -7.21484375 50.67953125 -7.21484375 51.01953125 C-9.265625 51.24739583 -11.31640625 51.47526042 -13.3671875 51.703125 C-15.22624604 51.83839739 -15.22624604 51.83839739 -16.21484375 53.01953125 C-16.25548207 54.6857024 -16.25756475 56.3534122 -16.21484375 58.01953125 C-13.86116662 58.70735485 -13.86116662 58.70735485 -11.21484375 59.01953125 C-8.11225691 56.95114002 -7.75115212 56.4281581 -6.40234375 53.20703125 C-4.37253606 48.90446592 -2.1083084 46.7280284 1.78515625 44.01953125 C2.44515625 44.01953125 3.10515625 44.01953125 3.78515625 44.01953125 C3.78515625 40.71953125 3.78515625 37.41953125 3.78515625 34.01953125 C5.10515625 34.01953125 6.42515625 34.01953125 7.78515625 34.01953125 C7.78515625 37.64953125 7.78515625 41.27953125 7.78515625 45.01953125 C9.76515625 44.52453125 9.76515625 44.52453125 11.78515625 44.01953125 C10.79515625 43.68953125 9.80515625 43.35953125 8.78515625 43.01953125 C8.45515625 39.71953125 8.12515625 36.41953125 7.78515625 33.01953125 C5.47515625 32.68953125 3.16515625 32.35953125 0.78515625 32.01953125 C0.78515625 31.02953125 0.78515625 30.03953125 0.78515625 29.01953125 C0.12515625 29.01953125 -0.53484375 29.01953125 -1.21484375 29.01953125 C-1.26640625 29.97214844 -1.31796875 30.92476562 -1.37109375 31.90625 C-2.26078313 41.74338366 -2.26078313 41.74338366 -4.7421875 45.0625 C-9.97719043 48.71308487 -16.04706875 49.06316391 -22.21484375 48.01953125 C-25.36141515 46.69821709 -27.6492228 45.15077314 -29.21484375 42.01953125 C-29.90055804 35.04810268 -29.90055804 35.04810268 -27.21484375 31.01953125 C-23.09528544 28.27315904 -21.09930328 28.38927841 -16.21484375 29.01953125 C-14.21484375 30.20703125 -14.21484375 30.20703125 -13.21484375 32.01953125 C-13.02734375 34.70703125 -13.02734375 34.70703125 -13.21484375 37.01953125 C-15.68984375 37.51453125 -15.68984375 37.51453125 -18.21484375 38.01953125 C-17.55484375 37.35953125 -16.89484375 36.69953125 -16.21484375 36.01953125 C-16.21484375 34.69953125 -16.21484375 33.37953125 -16.21484375 32.01953125 C-20.78723381 30.88686974 -20.78723381 30.88686974 -25.15234375 32.01953125 C-26.7645438 35.05426076 -26.45591773 37.64449555 -26.21484375 41.01953125 C-25.88484375 42.00953125 -25.55484375 42.99953125 -25.21484375 44.01953125 C-20.84206624 45.68860481 -15.80672932 45.54584372 -11.21484375 45.01953125 C-8.41980294 43.72511987 -8.41980294 43.72511987 -7.21484375 41.01953125 C-6.10795754 36.86199931 -6.10795754 36.86199931 -7.21484375 33.01953125 C-9.83929591 30.82959104 -12.52310313 29.20936498 -15.515625 27.5625 C-17.89239177 26.20385619 -19.5364862 25.15817414 -21.21484375 23.01953125 C-21.60086359 19.9313725 -21.69386041 17.91768749 -20.21484375 15.14453125 C-16.96170691 13.31464178 -13.90094266 13.8382477 -10.21484375 14.01953125 C-9.22484375 11.04953125 -8.23484375 8.07953125 -7.21484375 5.01953125 C-6.55484375 5.01953125 -5.89484375 5.01953125 -5.21484375 5.01953125 C-4.90546875 4.38015625 -4.59609375 3.74078125 -4.27734375 3.08203125 C-2.70190485 0.02382632 -2.70190485 0.02382632 0 0 Z " fill="#FCEEEC" transform="translate(40.21484375,15.98046875)"/>
<path d="M0 0 C0.89847656 0.06832031 1.79695313 0.13664062 2.72265625 0.20703125 C3.61855469 0.26246094 4.51445313 0.31789063 5.4375 0.375 C7.78515625 1.01953125 7.78515625 1.01953125 9.1015625 3.0703125 C9.43994141 4.03517578 9.43994141 4.03517578 9.78515625 5.01953125 C10.77515625 5.01953125 11.76515625 5.01953125 12.78515625 5.01953125 C12.78515625 7.65953125 12.78515625 10.29953125 12.78515625 13.01953125 C13.80609375 12.27703125 13.80609375 12.27703125 14.84765625 11.51953125 C18.37980634 9.71588014 20.87152616 9.78931772 24.78515625 10.01953125 C24.78515625 10.34953125 24.78515625 10.67953125 24.78515625 11.01953125 C23.88023438 11.22578125 22.9753125 11.43203125 22.04296875 11.64453125 C17.93481835 13.37842686 16.91330943 15.22474694 14.66015625 19.01953125 C10.70616602 25.62539444 10.70616602 25.62539444 6.78515625 27.01953125 C7.44515625 27.67953125 8.10515625 28.33953125 8.78515625 29.01953125 C8.41015625 31.14453125 8.41015625 31.14453125 7.78515625 33.01953125 C5.47515625 32.68953125 3.16515625 32.35953125 0.78515625 32.01953125 C0.78515625 31.02953125 0.78515625 30.03953125 0.78515625 29.01953125 C0.12515625 29.01953125 -0.53484375 29.01953125 -1.21484375 29.01953125 C-1.26640625 29.97214844 -1.31796875 30.92476562 -1.37109375 31.90625 C-2.26078313 41.74338366 -2.26078313 41.74338366 -4.7421875 45.0625 C-9.97719043 48.71308487 -16.04706875 49.06316391 -22.21484375 48.01953125 C-25.36141515 46.69821709 -27.6492228 45.15077314 -29.21484375 42.01953125 C-29.90055804 35.04810268 -29.90055804 35.04810268 -27.21484375 31.01953125 C-23.09528544 28.27315904 -21.09930328 28.38927841 -16.21484375 29.01953125 C-14.21484375 30.20703125 -14.21484375 30.20703125 -13.21484375 32.01953125 C-13.02734375 34.70703125 -13.02734375 34.70703125 -13.21484375 37.01953125 C-15.68984375 37.51453125 -15.68984375 37.51453125 -18.21484375 38.01953125 C-17.55484375 37.35953125 -16.89484375 36.69953125 -16.21484375 36.01953125 C-16.21484375 34.69953125 -16.21484375 33.37953125 -16.21484375 32.01953125 C-20.78723381 30.88686974 -20.78723381 30.88686974 -25.15234375 32.01953125 C-26.7645438 35.05426076 -26.45591773 37.64449555 -26.21484375 41.01953125 C-25.88484375 42.00953125 -25.55484375 42.99953125 -25.21484375 44.01953125 C-20.84206624 45.68860481 -15.80672932 45.54584372 -11.21484375 45.01953125 C-8.41980294 43.72511987 -8.41980294 43.72511987 -7.21484375 41.01953125 C-6.10795754 36.86199931 -6.10795754 36.86199931 -7.21484375 33.01953125 C-9.83929591 30.82959104 -12.52310313 29.20936498 -15.515625 27.5625 C-17.89239177 26.20385619 -19.5364862 25.15817414 -21.21484375 23.01953125 C-21.60086359 19.9313725 -21.69386041 17.91768749 -20.21484375 15.14453125 C-16.96170691 13.31464178 -13.90094266 13.8382477 -10.21484375 14.01953125 C-9.22484375 11.04953125 -8.23484375 8.07953125 -7.21484375 5.01953125 C-6.55484375 5.01953125 -5.89484375 5.01953125 -5.21484375 5.01953125 C-4.90546875 4.38015625 -4.59609375 3.74078125 -4.27734375 3.08203125 C-2.70190485 0.02382632 -2.70190485 0.02382632 0 0 Z " fill="#FAE3E2" transform="translate(40.21484375,15.98046875)"/>
<path d="M0 0 C0.89847656 0.06832031 1.79695313 0.13664062 2.72265625 0.20703125 C3.61855469 0.26246094 4.51445313 0.31789063 5.4375 0.375 C7.78515625 1.01953125 7.78515625 1.01953125 9.1015625 3.0703125 C9.43994141 4.03517578 9.43994141 4.03517578 9.78515625 5.01953125 C9.14578125 4.66890625 8.50640625 4.31828125 7.84765625 3.95703125 C3.64212955 2.66962512 0.07050862 3.32864655 -4.21484375 4.01953125 C-6.62376969 9.35980081 -7.05923284 14.23067819 -6.21484375 20.01953125 C-3.24244952 24.30327587 -0.20416356 25.74319362 4.78515625 27.01953125 C3.79515625 27.51453125 3.79515625 27.51453125 2.78515625 28.01953125 C2.78515625 29.33953125 2.78515625 30.65953125 2.78515625 32.01953125 C2.12515625 32.01953125 1.46515625 32.01953125 0.78515625 32.01953125 C0.78515625 31.02953125 0.78515625 30.03953125 0.78515625 29.01953125 C0.12515625 29.01953125 -0.53484375 29.01953125 -1.21484375 29.01953125 C-1.26640625 29.97214844 -1.31796875 30.92476562 -1.37109375 31.90625 C-2.26078313 41.74338366 -2.26078313 41.74338366 -4.7421875 45.0625 C-9.97719043 48.71308487 -16.04706875 49.06316391 -22.21484375 48.01953125 C-25.36141515 46.69821709 -27.6492228 45.15077314 -29.21484375 42.01953125 C-29.90055804 35.04810268 -29.90055804 35.04810268 -27.21484375 31.01953125 C-23.09528544 28.27315904 -21.09930328 28.38927841 -16.21484375 29.01953125 C-14.21484375 30.20703125 -14.21484375 30.20703125 -13.21484375 32.01953125 C-13.02734375 34.70703125 -13.02734375 34.70703125 -13.21484375 37.01953125 C-15.68984375 37.51453125 -15.68984375 37.51453125 -18.21484375 38.01953125 C-17.55484375 37.35953125 -16.89484375 36.69953125 -16.21484375 36.01953125 C-16.21484375 34.69953125 -16.21484375 33.37953125 -16.21484375 32.01953125 C-20.78723381 30.88686974 -20.78723381 30.88686974 -25.15234375 32.01953125 C-26.7645438 35.05426076 -26.45591773 37.64449555 -26.21484375 41.01953125 C-25.88484375 42.00953125 -25.55484375 42.99953125 -25.21484375 44.01953125 C-20.84206624 45.68860481 -15.80672932 45.54584372 -11.21484375 45.01953125 C-8.41980294 43.72511987 -8.41980294 43.72511987 -7.21484375 41.01953125 C-6.10795754 36.86199931 -6.10795754 36.86199931 -7.21484375 33.01953125 C-9.83929591 30.82959104 -12.52310313 29.20936498 -15.515625 27.5625 C-17.89239177 26.20385619 -19.5364862 25.15817414 -21.21484375 23.01953125 C-21.60086359 19.9313725 -21.69386041 17.91768749 -20.21484375 15.14453125 C-16.96170691 13.31464178 -13.90094266 13.8382477 -10.21484375 14.01953125 C-9.22484375 11.04953125 -8.23484375 8.07953125 -7.21484375 5.01953125 C-6.55484375 5.01953125 -5.89484375 5.01953125 -5.21484375 5.01953125 C-4.90546875 4.38015625 -4.59609375 3.74078125 -4.27734375 3.08203125 C-2.70190485 0.02382632 -2.70190485 0.02382632 0 0 Z " fill="#FCDEDE" transform="translate(40.21484375,15.98046875)"/>
<path d="M0 0 C0 0.99 0 1.98 0 3 C-3.3 3.33 -6.6 3.66 -10 4 C-10.23764115 6.85169382 -10.41056234 9.20169351 -10 12 C-7.81134887 14.40045607 -5.49080256 15.72915578 -2.6640625 17.2890625 C3.61914078 20.99555781 3.61914078 20.99555781 4.75390625 23.98828125 C4.97565633 27.78664548 4.1540054 29.75359136 2.125 33 C-2.19846517 35.76701771 -5.98666873 35.77441703 -11 35 C-14.29719791 33.73184696 -14.95257109 33.07114337 -17 30 C-17.4252996 26.10142037 -17.53951751 23.86322801 -15.4375 20.5 C-12.01717697 18.39518583 -9.80835623 19.12114856 -6 20 C-5.855625 20.804375 -5.71125 21.60875 -5.5625 22.4375 C-5.25864751 24.92103706 -5.25864751 24.92103706 -4 26 C-3.83312552 23.58354218 -3.83312552 23.58354218 -4 21 C-5.98233513 18.59466929 -5.98233513 18.59466929 -9.8125 18.625 C-13.97028498 18.70073379 -16.03394865 20.03394865 -19 23 C-18.67 21.35 -18.34 19.7 -18 18 C-16.02 17.67 -14.04 17.34 -12 17 C-11.67 15.68 -11.34 14.36 -11 13 C-11.66 13 -12.32 13 -13 13 C-13.60150376 5.90225564 -13.60150376 5.90225564 -11 2 C-6.97020535 -0.68652977 -4.76065969 -0.40344574 0 0 Z " fill="#FCF7F6" transform="translate(30,27)"/>
<path d="M0 0 C4.37205374 1.13070355 5.95142941 2.32031626 8.625 5.9375 C9.6875 9.375 9.6875 9.375 9.625 12.9375 C7.64561533 16.68419241 6.15483947 18.58427369 2.625 20.9375 C-3.39487353 21.47498871 -3.39487353 21.47498871 -6.3125 19.875 C-7.94683566 16.89474086 -7.62122562 14.26154589 -7.375 10.9375 C-6.375 9.9375 -6.375 9.9375 -3.8125 9.875 C-3.008125 9.895625 -2.20375 9.91625 -1.375 9.9375 C-1.375 10.9275 -1.375 11.9175 -1.375 12.9375 C-0.715 12.9375 -0.055 12.9375 0.625 12.9375 C0.295 11.6175 -0.035 10.2975 -0.375 8.9375 C-4.59400957 8.5013859 -4.59400957 8.5013859 -8.125 10.4375 C-8.5375 10.9325 -8.95 11.4275 -9.375 11.9375 C-10.035 11.9375 -10.695 11.9375 -11.375 11.9375 C-11.705 12.9275 -12.035 13.9175 -12.375 14.9375 C-13.035 14.6075 -13.695 14.2775 -14.375 13.9375 C-13.11136527 11.97451399 -11.8388372 10.01725066 -10.5625 8.0625 C-9.85480469 6.97195312 -9.14710937 5.88140625 -8.41796875 4.7578125 C-5.78821988 1.12745173 -4.55298422 -0.08431452 0 0 Z " fill="#FCF1EF" transform="translate(46.375,62.0625)"/>
<path d="M0 0 C3.0625 1.5625 3.0625 1.5625 5 4 C5.93490862 8.065183 5.60910301 11.00107106 3.4375 14.5625 C0.01492921 16.58093918 -2.22734431 15.87061285 -6 15 C-6.144375 14.195625 -6.28875 13.39125 -6.4375 12.5625 C-6.74135249 10.07896294 -6.74135249 10.07896294 -8 9 C-8.66 10.98 -9.32 12.96 -10 15 C-12.4375 14.625 -12.4375 14.625 -15 14 C-16.56935594 10.86128812 -16.35201103 8.46144178 -16 5 C-10.92736315 -1.14056039 -7.47169422 -1.62316116 0 0 Z " fill="#FCECEB" transform="translate(72,41)"/>
<path d="M0 0 C0.66 0 1.32 0 2 0 C2 0.99 2 1.98 2 3 C4.64 3 7.28 3 10 3 C10.04898438 3.78246094 10.09796875 4.56492187 10.1484375 5.37109375 C10.22320312 6.38300781 10.29796875 7.39492188 10.375 8.4375 C10.47941406 9.95150391 10.47941406 9.95150391 10.5859375 11.49609375 C10.72257812 12.32238281 10.85921875 13.14867187 11 14 C11.66 14.33 12.32 14.66 13 15 C12.67 15.66 12.34 16.32 12 17 C11.01 16.67 10.02 16.34 9 16 C9 12.37 9 8.74 9 5 C7.68 5 6.36 5 5 5 C5.06960937 5.67546875 5.13921875 6.3509375 5.2109375 7.046875 C5.37794943 9.7985954 5.42286521 12.27295088 5 15 C2.25 17.25 2.25 17.25 -1 19 C-3.12246635 21.8501691 -4.815632 24.62288364 -6.375 27.8125 C-8 30 -8 30 -11.0625 30.9375 C-12.031875 30.958125 -13.00125 30.97875 -14 31 C-16 29 -16 29 -16.25 26.5 C-16 24 -16 24 -14 22 C-16.64 21.34 -19.28 20.68 -22 20 C-21.67 19.34 -21.34 18.68 -21 18 C-20.28714844 18.04640625 -19.57429688 18.0928125 -18.83984375 18.140625 C-12.37470298 18.38426422 -7.90425435 18.47779745 -3 14 C-2.3703011 11.4212331 -2.18818517 9.08989372 -2.16796875 6.4375 C-1.98711608 3.8130334 -1.31804387 2.25057293 0 0 Z " fill="#FCD8D7" transform="translate(39,45)"/>
<path d="M0 0 C1.32 0 2.64 0 4 0 C4 3.63 4 7.26 4 11 C5.32 11.33 6.64 11.66 8 12 C10.84567035 14.52045088 12.84559784 16.32236114 13.203125 20.20703125 C13.36411333 29.15529906 13.36411333 29.15529906 10 33 C6.57905881 35.56570589 3.15226516 35.43708054 -1 35 C-3.75329021 33.20437595 -5.52627461 31.94745078 -7 29 C-7.44720497 23.74534161 -7.44720497 23.74534161 -5.875 21.125 C-3.21965017 19.5317901 -1.03210482 19.79785968 2 20 C2.33 21.65 2.66 23.3 3 25 C2.34 25 1.68 25 1 25 C1 24.01 1 23.02 1 22 C-0.65 22.33 -2.3 22.66 -4 23 C-4.16677282 26.41656024 -4.16677282 26.41656024 -4 30 C-2.07357392 32.33204711 -2.07357392 32.33204711 1.3125 32.4375 C5.08273372 32.29127907 5.08273372 32.29127907 7.875 29.9375 C10.41733802 26.42309156 11 24.32499429 11 20 C9.75724327 17.0566288 8.73665844 15.51566091 6.125 13.6875 C2.41326575 12.4866448 -0.32972618 12.77657539 -4 14 C-5.05716161 15.81615927 -5.05716161 15.81615927 -6 18 C-6.99894469 19.57658379 -8.02071035 21.13889376 -9.0625 22.6875 C-9.58972656 23.47511719 -10.11695313 24.26273438 -10.66015625 25.07421875 C-12 27 -12 27 -13 28 C-19.6 27.4 -19.6 27.4 -22 25 C-22.26991906 22.31160615 -22.08737357 19.70858064 -22 17 C-22.66 16.67 -23.32 16.34 -24 16 C-19.71 16 -15.42 16 -11 16 C-11 16.33 -11 16.66 -11 17 C-13.05078125 17.22786458 -15.1015625 17.45572917 -17.15234375 17.68359375 C-19.01140229 17.81886614 -19.01140229 17.81886614 -20 19 C-20.04063832 20.66617115 -20.042721 22.33388095 -20 24 C-17.64632287 24.6878236 -17.64632287 24.6878236 -15 25 C-11.89741316 22.93160877 -11.53630837 22.40862685 -10.1875 19.1875 C-8.15769231 14.88493467 -5.89346465 12.70849715 -2 10 C-1.34 10 -0.68 10 0 10 C0 6.7 0 3.4 0 0 Z " fill="#C62D30" transform="translate(44,50)"/>
<path d="M0 0 C1.83056368 1.22629994 3.4870304 2.5807804 5.046875 4.140625 C5.46801035 8.13331209 5.60152069 11.86820253 3.984375 15.578125 C1.24665761 17.7859616 -1.56167934 18.37275051 -4.953125 19.140625 C-4.623125 19.635625 -4.293125 20.130625 -3.953125 20.640625 C-2.48510084 24.31068541 -2.69834512 27.1915368 -2.953125 31.140625 C-4.953125 33.140625 -4.953125 33.140625 -7.1171875 33.3359375 C-7.92929688 33.31273437 -8.74140625 33.28953125 -9.578125 33.265625 C-10.39539062 33.24757812 -11.21265625 33.22953125 -12.0546875 33.2109375 C-12.68117188 33.18773437 -13.30765625 33.16453125 -13.953125 33.140625 C-14.283125 33.800625 -14.613125 34.460625 -14.953125 35.140625 C-14.953125 30.850625 -14.953125 26.560625 -14.953125 22.140625 C-14.623125 22.140625 -14.293125 22.140625 -13.953125 22.140625 C-13.293125 25.110625 -12.633125 28.080625 -11.953125 31.140625 C-8.488125 30.645625 -8.488125 30.645625 -4.953125 30.140625 C-4.953125 28.160625 -4.953125 26.180625 -4.953125 24.140625 C-5.68015625 23.87378906 -6.4071875 23.60695313 -7.15625 23.33203125 C-9.93058471 22.15022666 -12.21715297 20.77576026 -14.703125 19.078125 C-15.48171875 18.55089844 -16.2603125 18.02367188 -17.0625 17.48046875 C-18.953125 16.140625 -18.953125 16.140625 -19.953125 15.140625 C-20.6212298 9.98667369 -20.83768078 6.31206374 -17.640625 2.078125 C-12.71652862 -1.47180495 -5.69628616 -2.50636591 0 0 Z M-16.953125 4.140625 C-18.44609712 7.12656924 -18.07067728 9.84916124 -17.953125 13.140625 C-17.623125 13.800625 -17.293125 14.460625 -16.953125 15.140625 C-14.42579265 15.79617619 -14.42579265 15.79617619 -11.953125 16.140625 C-11.293125 14.160625 -10.633125 12.180625 -9.953125 10.140625 C-8.31233258 11.78141742 -8.35200158 13.91831265 -7.953125 16.140625 C-3.05933255 17.36640102 -3.05933255 17.36640102 1.484375 15.703125 C3.65597801 12.14169606 3.98178362 9.205808 3.046875 5.140625 C0.37794947 1.78294449 -2.28917189 0.85422242 -6.390625 0.140625 C-10.99134633 -0.20500515 -13.44919653 1.07468759 -16.953125 4.140625 Z " fill="#B0393D" transform="translate(73.953125,39.859375)"/>
<path d="M0 0 C0.33 0 0.66 0 1 0 C1 3.96 1 7.92 1 12 C0.67 12 0.34 12 0 12 C-0.144375 10.865625 -0.28875 9.73125 -0.4375 8.5625 C-0.61171478 5.19222799 -0.61171478 5.19222799 -2 4 C-4.5 3.83333333 -4.5 3.83333333 -7 4 C-8.23993845 5.04678106 -8.23993845 5.04678106 -8.39453125 7.3359375 C-8.27198459 10.20636852 -8.27198459 10.20636852 -5.69921875 11.9140625 C-4.20841797 12.76097656 -4.20841797 12.76097656 -2.6875 13.625 C4.22908882 17.62125132 4.22908882 17.62125132 6 20 C6.9874175 24.15717076 7.03950843 28.25376307 4.81640625 31.98828125 C1.37385968 35.44733883 -1.72406339 36.41348365 -6.5625 36.625 C-11.55937014 36.35006904 -14.28850431 35.32081193 -18 32 C-19.61588379 28.76823243 -19.57451407 25.49384717 -19 22 C-16.996799 18.99519849 -15.61888598 17.3275567 -11.9921875 16.59375 C-8.98222116 16.46046736 -6.61537734 16.6346197 -4 18.1875 C-2.69105832 20.55995679 -2.78379825 22.3335118 -3 25 C-4.65 25.33 -6.3 25.66 -8 26 C-7.34 25.34 -6.68 24.68 -6 24 C-6 22.68 -6 21.36 -6 20 C-10.57239006 18.86733849 -10.57239006 18.86733849 -14.9375 20 C-16.54970005 23.03472951 -16.24107398 25.6249643 -16 29 C-15.67 29.99 -15.34 30.98 -15 32 C-10.62722249 33.66907356 -5.59188557 33.52631247 -1 33 C1.79504081 31.70558862 1.79504081 31.70558862 3 29 C4.10688621 24.84246806 4.10688621 24.84246806 3 21 C0.37554784 18.81005979 -2.30825938 17.18983373 -5.30078125 15.54296875 C-7.67754802 14.18432494 -9.32164245 13.13864289 -11 11 C-11.38601984 7.91184125 -11.47901666 5.89815624 -10 3.125 C-6.74686316 1.29511053 -3.68609891 1.81871645 0 2 C0 1.34 0 0.68 0 0 Z " fill="#BB4144" transform="translate(30,28)"/>
<path d="M0 0 C0.66 0.99 1.32 1.98 2 3 C0.98679687 2.82210938 0.98679687 2.82210938 -0.046875 2.640625 C-5.62251977 1.63650659 -5.62251977 1.63650659 -10.5625 3.8125 C-13.14698183 7.74540714 -13.24495283 10.26424521 -13 15 C-11.98263229 17.76142665 -11.63829259 18.68085371 -9 20 C-5.77022269 20.83089707 -3.2061487 20.98885985 0 20 C3.21997768 16.66521836 5.54840285 12.91550049 8 9 C10 7 10 7 13.625 6.875 C15.295625 6.936875 15.295625 6.936875 17 7 C17 7.33 17 7.66 17 8 C16.09507813 8.20625 15.19015625 8.4125 14.2578125 8.625 C10.1496621 10.35889561 9.12815318 12.20521569 6.875 16 C2.92100977 22.60586319 2.92100977 22.60586319 -1 24 C-0.34 24.66 0.32 25.32 1 26 C0.625 28.125 0.625 28.125 0 30 C-1.65 29.67 -3.3 29.34 -5 29 C-5 27.68 -5 26.36 -5 25 C-6.68215586 23.52923081 -6.68215586 23.52923081 -8.875 22.4375 C-11.96474532 20.74866071 -12.96874681 20.04687979 -15 17 C-15.58190144 12.11807362 -15.61701919 7.51169701 -13.75 2.9375 C-9.47041154 -1.80061579 -5.9637429 -1.25046222 0 0 Z " fill="#BB393C" transform="translate(48,19)"/>
<path d="M0 0 C1.670625 0.061875 1.670625 0.061875 3.375 0.125 C4.8533226 3.08164519 4.43532783 5.86729737 4.375 9.125 C5.035 9.125 5.695 9.125 6.375 9.125 C6.705 10.115 7.035 11.105 7.375 12.125 C1.29906438 12.23751733 -4.58945452 11.81760358 -10.625 11.125 C-9.83758141 9.66436857 -9.0449095 8.20656827 -8.25 6.75 C-7.80914062 5.93789063 -7.36828125 5.12578125 -6.9140625 4.2890625 C-4.79477269 0.73122446 -4.29297627 0.14803366 0 0 Z " fill="#FDC0C1" transform="translate(63.625,26.875)"/>
<path d="M0 0 C0 0.99 0 1.98 0 3 C-3.3 3.33 -6.6 3.66 -10 4 C-10.23764115 6.85169382 -10.41056234 9.20169351 -10 12 C-7.81134887 14.40045607 -5.49080256 15.72915578 -2.6640625 17.2890625 C3.75271559 21.07435431 3.75271559 21.07435431 4.578125 24.1640625 C4.5625 26.375 4.5625 26.375 4 30 C3.67 30 3.34 30 3 30 C2.34 27.36 1.68 24.72 1 22 C0.34 23.32 -0.32 24.64 -1 26 C-1.99 26 -2.98 26 -4 26 C-3.95875 25.21625 -3.9175 24.4325 -3.875 23.625 C-3.71271266 20.83883881 -3.71271266 20.83883881 -6 19 C-11.87564294 18.40579157 -11.87564294 18.40579157 -17 21 C-17.66 21.66 -18.32 22.32 -19 23 C-18.67 21.35 -18.34 19.7 -18 18 C-16.02 17.67 -14.04 17.34 -12 17 C-11.67 15.68 -11.34 14.36 -11 13 C-11.66 13 -12.32 13 -13 13 C-13.60150376 5.90225564 -13.60150376 5.90225564 -11 2 C-6.97020535 -0.68652977 -4.76065969 -0.40344574 0 0 Z " fill="#FADDD9" transform="translate(30,27)"/>
<path d="M0 0 C3.80195622 0.5431366 5.50130343 2.15665563 8 5 C9.84343062 8.68686123 9.3556682 12.96697667 9 17 C7.75420505 19.98990788 6.80979108 21.39265669 4.25 23.3125 C0.9789382 24.31199111 -1.59742588 24.3581657 -5 24 C-7.75329021 22.20437595 -9.52627461 20.94745078 -11 18 C-11.44720497 12.74534161 -11.44720497 12.74534161 -9.875 10.125 C-7.21965017 8.5317901 -5.03210482 8.79785968 -2 9 C-1.67 10.65 -1.34 12.3 -1 14 C-1.66 14 -2.32 14 -3 14 C-3 13.01 -3 12.02 -3 11 C-4.65 11.33 -6.3 11.66 -8 12 C-8.16677282 15.41656024 -8.16677282 15.41656024 -8 19 C-6.07357392 21.33204711 -6.07357392 21.33204711 -2.6875 21.4375 C1.08273372 21.29127907 1.08273372 21.29127907 3.875 18.9375 C6.41733802 15.42309156 7 13.32499429 7 9 C5.6800393 5.87377729 4.72251903 4.43351142 1.8125 2.6875 C1.214375 2.460625 0.61625 2.23375 0 2 C0 1.34 0 0.68 0 0 Z " fill="#B73F47" transform="translate(48,61)"/>
<path d="M0 0 C0.33 0 0.66 0 1 0 C1 3.96 1 7.92 1 12 C0.67 12 0.34 12 0 12 C-0.144375 10.865625 -0.28875 9.73125 -0.4375 8.5625 C-0.61171478 5.19222799 -0.61171478 5.19222799 -2 4 C-4.5 3.83333333 -4.5 3.83333333 -7 4 C-8.23993845 5.04678106 -8.23993845 5.04678106 -8.39453125 7.3359375 C-8.27198459 10.20636852 -8.27198459 10.20636852 -5.69921875 11.9140625 C-4.70535156 12.47867188 -3.71148437 13.04328125 -2.6875 13.625 C4.34181284 17.68638075 4.34181284 17.68638075 6 20 C6.29296875 22.48046875 6.29296875 22.48046875 6.1875 25.1875 C6.16042969 26.08855469 6.13335937 26.98960938 6.10546875 27.91796875 C6.07066406 28.60503906 6.03585938 29.29210937 6 30 C5.34 30 4.68 30 4 30 C4.08314453 29.14728516 4.08314453 29.14728516 4.16796875 28.27734375 C4.19103677 25.51379462 3.99441372 23.59537854 3 21 C0.36920839 18.76148202 -2.30765712 17.16178094 -5.3359375 15.5078125 C-7.70654564 14.16609001 -9.32879591 13.12799988 -11 11 C-11.38601984 7.91184125 -11.47901666 5.89815624 -10 3.125 C-6.74686316 1.29511053 -3.68609891 1.81871645 0 2 C0 1.34 0 0.68 0 0 Z " fill="#BE3D41" transform="translate(30,28)"/>
<path d="M0 0 C0.66 0 1.32 0 2 0 C2 0.99 2 1.98 2 3 C2.66 3 3.32 3 4 3 C4 6.63 4 10.26 4 14 C2.68 14 1.36 14 0 14 C0 14.66 0 15.32 0 16 C-0.66 16 -1.32 16 -2 16 C-2.33 16.66 -2.66 17.32 -3 18 C-3.66 18 -4.32 18 -5 18 C-5 17.01 -5 16.02 -5 15 C-4.34 14.67 -3.68 14.34 -3 14 C-2.60691577 11.77702487 -2.60691577 11.77702487 -2.5 9.1875 C-2.28813073 5.60161264 -1.80651868 3.12498594 0 0 Z " fill="#FDF8F8" transform="translate(39,45)"/>
<path d="M0 0 C-2.625 5.75 -2.625 5.75 -6 8 C-10.54054054 7.45945946 -10.54054054 7.45945946 -12 6 C-12.1875 3.5625 -12.1875 3.5625 -12 1 C-9.75502779 -1.24497221 -9.03972651 -1.37003419 -6 -1.75 C-5.29875 -1.84796875 -4.5975 -1.9459375 -3.875 -2.046875 C-2 -2 -2 -2 0 0 Z " fill="#FEDEDC" transform="translate(35,68)"/>
<path d="M0 0 C0 4 0 4 -1 6 C-2.670625 6.2165625 -2.670625 6.2165625 -4.375 6.4375 C-8.05942339 7.00922087 -8.75514671 7.28254602 -11 10 C-11.66 10 -12.32 10 -13 10 C-13.33 10.99 -13.66 11.98 -14 13 C-14.66 12.67 -15.32 12.34 -16 12 C-14.76447525 10.01176478 -13.51106266 8.03463632 -12.25 6.0625 C-11.55390625 4.96035156 -10.8578125 3.85820313 -10.140625 2.72265625 C-8 0 -8 0 -5.875 -0.90625 C-3.72883049 -1.01355848 -2.03913899 -0.65543753 0 0 Z " fill="#FCFAFB" transform="translate(48,64)"/>
<path d="M0 0 C1.83056368 1.22629994 3.4870304 2.5807804 5.046875 4.140625 C5.49250411 8.36553176 5.72323567 11.98517552 3.546875 15.703125 C3.051875 16.1775 2.556875 16.651875 2.046875 17.140625 C1.056875 16.810625 0.066875 16.480625 -0.953125 16.140625 C0.036875 15.810625 1.026875 15.480625 2.046875 15.140625 C2.15512343 13.5379468 2.23258145 11.93316752 2.296875 10.328125 C2.34328125 9.43480469 2.3896875 8.54148437 2.4375 7.62109375 C2.27584342 5.03079506 2.27584342 5.03079506 0.30859375 3.37109375 C-3.33773583 1.38733932 -6.83501663 1.02296476 -10.953125 1.140625 C-14.52873389 2.51000713 -15.58716669 3.3912818 -17.265625 6.828125 C-17.6059375 7.9728125 -17.6059375 7.9728125 -17.953125 9.140625 C-18.613125 8.810625 -19.273125 8.480625 -19.953125 8.140625 C-19.41024648 4.34047535 -17.83847857 2.60166187 -14.953125 0.140625 C-10.24388432 -1.42912189 -4.6544063 -2.04793877 0 0 Z " fill="#BB4646" transform="translate(73.953125,39.859375)"/>
<path d="M0 0 C0.99 0 1.98 0 3 0 C3 2.64 3 5.28 3 8 C3.66 8.33 4.32 8.66 5 9 C4.02501855 10.5027237 3.04490611 12.00211963 2.0625 13.5 C1.51722656 14.3353125 0.97195312 15.170625 0.41015625 16.03125 C-0.05519531 16.6809375 -0.52054688 17.330625 -1 18 C-1.33 18 -1.66 18 -2 18 C-2 16.35 -2 14.7 -2 13 C-3.65 12.67 -5.3 12.34 -7 12 C-7 10.68 -7 9.36 -7 8 C-6.34 8 -5.68 8 -5 8 C-4.67 8.66 -4.34 9.32 -4 10 C-2.68 10 -1.36 10 0 10 C0 6.7 0 3.4 0 0 Z " fill="#FCD7D5" transform="translate(50,21)"/>
<path d="M0 0 C2.4375 0.1875 2.4375 0.1875 3.4375 1.1875 C3.47842937 3.52047433 3.47991723 5.85455225 3.4375 8.1875 C0.5625 8.8125 0.5625 8.8125 -2.5625 9.1875 C-4.5625 7.1875 -4.5625 7.1875 -4.8125 4.6875 C-4.45862826 1.14878262 -3.54553886 0.25942967 0 0 Z " fill="#FEEDEC" transform="translate(25.5625,30.8125)"/>
<path d="M0 0 C0.556875 0.7115625 0.556875 0.7115625 1.125 1.4375 C3.62646962 3.52205802 5.81593418 3.64621491 9 4 C9 5.65 9 7.3 9 9 C2.69306931 9.48514851 2.69306931 9.48514851 -0.5 7.25 C-2 5 -2 5 -1.8125 2.8125 C-1 1 -1 1 0 0 Z " fill="#FDF9F7" transform="translate(39,31)"/>
<path d="M0 0 C1.65 0 3.3 0 5 0 C5.73080266 1.97746603 6.39421747 3.98072489 7 6 C6.67 6.66 6.34 7.32 6 8 C3.03 8 0.06 8 -3 8 C-3 7.34 -3 6.68 -3 6 C-2.34 6 -1.68 6 -1 6 C-0.67 4.02 -0.34 2.04 0 0 Z " fill="#FDF0ED" transform="translate(60,27)"/>
<path d="M0 0 C1.32 0 2.64 0 4 0 C4 2.64 4 5.28 4 8 C3.01 8 2.02 8 1 8 C0.34 8.66 -0.32 9.32 -1 10 C-2.32 9.34 -3.64 8.68 -5 8 C-4.67 6.68 -4.34 5.36 -4 4 C-3.34 4 -2.68 4 -2 4 C-1.34 2.68 -0.68 1.36 0 0 Z " fill="#FBFAF9" transform="translate(42,20)"/>
<path d="M0 0 C1.32 0.33 2.64 0.66 4 1 C4 1.66 4 2.32 4 3 C4.66 3 5.32 3 6 3 C6.33 2.01 6.66 1.02 7 0 C7.33 3.63 7.66 7.26 8 11 C10.64 11 13.28 11 16 11 C15.67 11.66 15.34 12.32 15 13 C12.71484375 13.6328125 12.71484375 13.6328125 9.9375 14.125 C9.01839844 14.29257813 8.09929688 14.46015625 7.15234375 14.6328125 C6.08693359 14.81457031 6.08693359 14.81457031 5 15 C4.93941406 14.39671875 4.87882812 13.7934375 4.81640625 13.171875 C4.73261719 12.37265625 4.64882813 11.5734375 4.5625 10.75 C4.48128906 9.96109375 4.40007813 9.1721875 4.31640625 8.359375 C3.89878137 5.12109403 3.89878137 5.12109403 3 2 C2.01 1.67 1.02 1.34 0 1 C0 0.67 0 0.34 0 0 Z " fill="#FED1D2" transform="translate(52,62)"/>
<path d="M0 0 C0.33 1.65 0.66 3.3 1 5 C0.34 5 -0.32 5 -1 5 C-1 4.01 -1 3.02 -1 2 C-2.65 2.33 -4.3 2.66 -6 3 C-6.16677282 6.41656024 -6.16677282 6.41656024 -6 10 C-3.80202597 12.19797403 -2.82453855 12.45897517 0.125 13.125 C2.043125 13.558125 2.043125 13.558125 4 14 C4 14.33 4 14.66 4 15 C-0.13998349 15.32470459 -2.33999001 15.4304413 -5.875 13.125 C-8.45371765 10.54628235 -8.94069718 9.69680816 -9.25 6.0625 C-9 3 -9 3 -7.875 1.125 C-5.21965017 -0.4682099 -3.03210482 -0.20214032 0 0 Z " fill="#B74F56" transform="translate(46,70)"/>
<path d="M0 0 C0.99 0 1.98 0 3 0 C4.25 6.625 4.25 6.625 2 10 C-1.125 10.1875 -1.125 10.1875 -4 10 C-4.33 8.68 -4.66 7.36 -5 6 C-4.360625 5.566875 -3.72125 5.13375 -3.0625 4.6875 C-0.73253997 3.08760823 -0.73253997 3.08760823 0 0 Z " fill="#FCFBFC" transform="translate(72,45)"/>
<path d="M0 0 C1.62741744 0.78668518 3.25186131 1.5795241 4.875 2.375 C6.23238281 3.03628906 6.23238281 3.03628906 7.6171875 3.7109375 C10 5 10 5 12 7 C12.26991906 9.68839385 12.08737357 12.29141936 12 15 C11.67 15 11.34 15 11 15 C10.34 12.36 9.68 9.72 9 7 C8.34 8.32 7.68 9.64 7 11 C6.01 11 5.02 11 4 11 C4.04125 10.21625 4.0825 9.4325 4.125 8.625 C4.28728734 5.83883881 4.28728734 5.83883881 2 4 C-0.57061311 3.35232207 -0.57061311 3.35232207 -3 3 C-2.01 2.67 -1.02 2.34 0 2 C0 1.34 0 0.68 0 0 Z " fill="#FDCECF" transform="translate(22,42)"/>
<path d="M0 0 C1.32 0.33 2.64 0.66 4 1 C3.01 1.495 3.01 1.495 2 2 C2 3.32 2 4.64 2 6 C4.31 6.66 6.62 7.32 9 8 C7.03617993 9.50559539 5.21736634 10.89131683 3 12 C1.0546875 11.00390625 1.0546875 11.00390625 -1.125 9.5625 C-1.84945312 9.08941406 -2.57390625 8.61632813 -3.3203125 8.12890625 C-3.87460937 7.75636719 -4.42890625 7.38382813 -5 7 C-4.34 6.67 -3.68 6.34 -3 6 C-1.95191959 4.02477154 -0.9479589 2.02518491 0 0 Z " fill="#FDD3CE" transform="translate(64,49)"/>
<path d="M0 0 C1.98 0.495 1.98 0.495 4 1 C4.6875 4.3125 4.6875 4.3125 5 8 C3.5625 9.9375 3.5625 9.9375 2 11 C1.01 10.67 0.02 10.34 -1 10 C-0.67 6.7 -0.34 3.4 0 0 Z " fill="#FDE8E7" transform="translate(46,21)"/>
<path d="M0 0 C0.89847656 0.06832031 1.79695313 0.13664062 2.72265625 0.20703125 C3.61855469 0.26246094 4.51445313 0.31789063 5.4375 0.375 C7.78515625 1.01953125 7.78515625 1.01953125 9.1015625 3.0703125 C9.43994141 4.03517578 9.43994141 4.03517578 9.78515625 5.01953125 C9.14578125 4.66890625 8.50640625 4.31828125 7.84765625 3.95703125 C3.64212955 2.66962512 0.07050862 3.32864655 -4.21484375 4.01953125 C-6.25785529 8.54334252 -7.2244067 13.1832482 -8.21484375 18.01953125 C-8.54484375 18.01953125 -8.87484375 18.01953125 -9.21484375 18.01953125 C-9.07399579 16.22746578 -8.92700674 14.43588208 -8.77734375 12.64453125 C-8.69613281 11.64679687 -8.61492188 10.6490625 -8.53125 9.62109375 C-8.21484375 7.01953125 -8.21484375 7.01953125 -7.21484375 5.01953125 C-6.55484375 5.01953125 -5.89484375 5.01953125 -5.21484375 5.01953125 C-4.90546875 4.38015625 -4.59609375 3.74078125 -4.27734375 3.08203125 C-2.70190485 0.02382632 -2.70190485 0.02382632 0 0 Z " fill="#FED6D1" transform="translate(40.21484375,15.98046875)"/>
<path d="M0 0 C0.99 0.495 0.99 0.495 2 1 C2.103125 1.969375 2.20625 2.93875 2.3125 3.9375 C2.539375 4.948125 2.76625 5.95875 3 7 C5.23259665 8.22772827 5.23259665 8.22772827 8 9 C10.02318078 10.29788956 12.02866014 11.62464661 14 13 C12.29296875 13.6796875 12.29296875 13.6796875 10 14 C7.67578125 12.8203125 7.67578125 12.8203125 5.3125 11.125 C4.52488281 10.57070313 3.73726562 10.01640625 2.92578125 9.4453125 C1 8 1 8 0 7 C-0.04092937 4.66702567 -0.04241723 2.33294775 0 0 Z " fill="#CC2427" transform="translate(54,48)"/>
<path d="M0 0 C1.32 0 2.64 0 4 0 C4 3.96 4 7.92 4 12 C2.68 11.67 1.36 11.34 0 11 C0 7.37 0 3.74 0 0 Z " fill="#E11010" transform="translate(44,50)"/>
<path d="M0 0 C0.33 0.66 0.66 1.32 1 2 C3.31 2 5.62 2 8 2 C6.58755 4.8249 4.77221269 5.55088882 2 7 C-0.8125 7.6875 -0.8125 7.6875 -3 8 C-3 6.02 -3 4.04 -3 2 C-2.01 2 -1.02 2 0 2 C0 1.34 0 0.68 0 0 Z " fill="#FDEEEC" transform="translate(55,36)"/>
<path d="M0 0 C1.03125 0.144375 2.0625 0.28875 3.125 0.4375 C3.125 0.7675 3.125 1.0975 3.125 1.4375 C2.25875 1.581875 1.3925 1.72625 0.5 1.875 C-3.86329172 3.89504246 -5.19549204 6.47833858 -7.578125 10.5390625 C-8.00609375 11.16554688 -8.4340625 11.79203125 -8.875 12.4375 C-9.535 12.4375 -10.195 12.4375 -10.875 12.4375 C-10.59911865 7.88545765 -8.58159843 5.11820018 -5.640625 1.8203125 C-3.875 0.4375 -3.875 0.4375 0 0 Z " fill="#C52A2F" transform="translate(61.875,25.5625)"/>
<path d="M0 0 C1.98 0 3.96 0 6 0 C6.33 1.65 6.66 3.3 7 5 C3.25 6.125 3.25 6.125 1 5 C1 4.34 1 3.68 1 3 C0.34 3 -0.32 3 -1 3 C-0.67 2.01 -0.34 1.02 0 0 Z " fill="#FDF6F4" transform="translate(25,69)"/>
<path d="M0 0 C4.29 0 8.58 0 13 0 C13 0.33 13 0.66 13 1 C10.94921875 1.22786458 8.8984375 1.45572917 6.84765625 1.68359375 C4.98859771 1.81886614 4.98859771 1.81886614 4 3 C3.95936168 4.66617115 3.957279 6.33388095 4 8 C7.465 9.485 7.465 9.485 11 11 C11 11.33 11 11.66 11 12 C4.25 11.25 4.25 11.25 2 9 C1.73008094 6.31160615 1.91262643 3.70858064 2 1 C1.34 0.67 0.68 0.34 0 0 Z " fill="#BC4547" transform="translate(20,66)"/>
<path d="M0 0 C2.00753698 1.09040327 4.00588751 2.19773572 6 3.3125 C7.11375 3.92738281 8.2275 4.54226562 9.375 5.17578125 C10.24125 5.77777344 11.1075 6.37976562 12 7 C12 7.99 12 8.98 12 10 C11.67 9.34 11.34 8.68 11 8 C9.68 8 8.36 8 7 8 C7 9.98 7 11.96 7 14 C6.67 14 6.34 14 6 14 C5.9071875 12.4221875 5.9071875 12.4221875 5.8125 10.8125 C4.86023621 6.3441853 3.33054108 4.98894713 0 2 C0 1.34 0 0.68 0 0 Z " fill="#F9D1D6" transform="translate(54,55)"/>
<path d="M0 0 C0.66 0.33 1.32 0.66 2 1 C2.4856661 8.40640809 2.4856661 8.40640809 0.3125 11.0625 C-2.54680518 12.22167778 -4.09019806 11.88910615 -7 11 C-7 9.68 -7 8.36 -7 7 C-6.34 7 -5.68 7 -5 7 C-4.67 7.66 -4.34 8.32 -4 9 C-2.68 9 -1.36 9 0 9 C0 6.03 0 3.06 0 0 Z " fill="#BE4747" transform="translate(50,22)"/>
<path d="M0 0 C0.99 0.33 1.98 0.66 3 1 C3 1.99 3 2.98 3 4 C2.45730469 4.18175781 1.91460937 4.36351562 1.35546875 4.55078125 C0.64003906 4.80214844 -0.07539063 5.05351563 -0.8125 5.3125 C-1.52019531 5.55613281 -2.22789063 5.79976562 -2.95703125 6.05078125 C-5.14472373 7.06724258 -6.40896718 8.20820594 -8 10 C-7.67 8.35 -7.34 6.7 -7 5 C-5.02 4.67 -3.04 4.34 -1 4 C-0.67 2.68 -0.34 1.36 0 0 Z " fill="#FDE3E3" transform="translate(19,40)"/>
<path d="M0 0 C0.33 0.66 0.66 1.32 1 2 C2.98 2 4.96 2 7 2 C7 2.33 7 2.66 7 3 C6.0925 3.28875 5.185 3.5775 4.25 3.875 C0.48607414 5.15707036 0.48607414 5.15707036 -3 7 C-3.33 7.99 -3.66 8.98 -4 10 C-4.66 9.67 -5.32 9.34 -6 9 C-4.02 6.03 -2.04 3.06 0 0 Z " fill="#F7BAB8" transform="translate(38,67)"/>
<path d="M0 0 C0.66 0 1.32 0 2 0 C3.4783226 2.95664519 3.06032783 5.74229737 3 9 C3.66 9.33 4.32 9.66 5 10 C0.71 10 -3.58 10 -8 10 C-8 9.67 -8 9.34 -8 9 C-5.36 8.67 -2.72 8.34 0 8 C0.98120464 4.94736336 0.98120464 3.05263664 0 0 Z " fill="#B53D44" transform="translate(65,27)"/>
<path d="M0 0 C1.984375 1.17578125 1.984375 1.17578125 4 3 C4.390625 5.48046875 4.390625 5.48046875 4.25 8.1875 C4.21390625 9.08855469 4.1778125 9.98960938 4.140625 10.91796875 C4.09421875 11.60503906 4.0478125 12.29210938 4 13 C3.34 13 2.68 13 2 13 C1.93941406 12.39671875 1.87882812 11.7934375 1.81640625 11.171875 C1.69072266 9.97304688 1.69072266 9.97304688 1.5625 8.75 C1.48128906 7.96109375 1.40007813 7.1721875 1.31640625 6.359375 C1.02365007 4.17635361 0.57935581 2.1226818 0 0 Z " fill="#CE181A" transform="translate(32,45)"/>
<path d="M0 0 C1.65 0 3.3 0 5 0 C5.33 1.32 5.66 2.64 6 4 C4.35 4.33 2.7 4.66 1 5 C0.67 3.35 0.34 1.7 0 0 Z " fill="#D71A1E" transform="translate(43,44)"/>
<path d="M0 0 C2.0625 0.4375 2.0625 0.4375 4 1 C3.01 1.495 3.01 1.495 2 2 C2 3.32 2 4.64 2 6 C4.31 6.66 6.62 7.32 9 8 C9 8.33 9 8.66 9 9 C5.74704886 9.22179212 3.57202207 9.28601103 0.625 7.8125 C-1 6 -1 6 -1.3125 3.375 C-1 1 -1 1 0 0 Z " fill="#AF3434" transform="translate(64,49)"/>
<path d="M0 0 C0.33 0.66 0.66 1.32 1 2 C0.34 2 -0.32 2 -1 2 C-0.67 2.99 -0.34 3.98 0 5 C2.97 5.495 2.97 5.495 6 6 C5.67 6.66 5.34 7.32 5 8 C2.69 7.67 0.38 7.34 -2 7 C-2.33 5.35 -2.66 3.7 -3 2 C-2.01 1.34 -1.02 0.68 0 0 Z " fill="#FCCDCA" transform="translate(68,49)"/>
<path d="M0 0 C0.33 0 0.66 0 1 0 C1.25 2.3125 1.25 2.3125 1 5 C-0.75 6.875 -0.75 6.875 -3 8 C-5.25 7.6875 -5.25 7.6875 -7 7 C-6.21625 6.401875 -5.4325 5.80375 -4.625 5.1875 C-1.85425677 3.08914751 -1.85425677 3.08914751 0 0 Z " fill="#CB3D3F" transform="translate(55,76)"/>
<path d="M0 0 C0.66 0.99 1.32 1.98 2 3 C1.30132812 2.91621094 0.60265625 2.83242188 -0.1171875 2.74609375 C-1.02726562 2.64425781 -1.93734375 2.54242187 -2.875 2.4375 C-3.77992187 2.33308594 -4.68484375 2.22867187 -5.6171875 2.12109375 C-8.01653057 1.80325148 -8.01653057 1.80325148 -10 3 C-10.66 2.34 -11.32 1.68 -12 1 C-7.98030626 -1.84728306 -4.58256922 -0.96086129 0 0 Z " fill="#C54E4D" transform="translate(48,19)"/>
<path d="M0 0 C1.2065625 0.0309375 1.2065625 0.0309375 2.4375 0.0625 C1.1175 0.3925 -0.2025 0.7225 -1.5625 1.0625 C-1.2325 4.0325 -0.9025 7.0025 -0.5625 10.0625 C-1.5525 9.4025 -2.5425 8.7425 -3.5625 8.0625 C-3.8125 4.5 -3.8125 4.5 -3.5625 1.0625 C-2.5625 0.0625 -2.5625 0.0625 0 0 Z " fill="#FEDBDC" transform="translate(42.5625,71.9375)"/>
<path d="M0 0 C3.73487777 0.4979837 5.81237635 0.87491756 9 3 C9 3.99 9 4.98 9 6 C5.9168649 4.80100302 2.93720508 3.52299523 0 2 C0 1.34 0 0.68 0 0 Z " fill="#CE2E36" transform="translate(23,41)"/>
<path d="M0 0 C1.32 0.33 2.64 0.66 4 1 C4 1.66 4 2.32 4 3 C4.66 3 5.32 3 6 3 C6.33 2.01 6.66 1.02 7 0 C7 2.64 7 5.28 7 8 C6.34 8 5.68 8 5 8 C4.731875 7.030625 4.46375 6.06125 4.1875 5.0625 C3.795625 4.051875 3.40375 3.04125 3 2 C2.01 1.67 1.02 1.34 0 1 C0 0.67 0 0.34 0 0 Z " fill="#FDDADC" transform="translate(52,62)"/>
<path d="M0 0 C0.99 0.33 1.98 0.66 3 1 C1.625 2.5 1.625 2.5 0 4 C-0.66 4 -1.32 4 -2 4 C-2.66 5.32 -3.32 6.64 -4 8 C-4.33 7.34 -4.66 6.68 -5 6 C-2.59016393 1.29508197 -2.59016393 1.29508197 0 0 Z " fill="#C82625" transform="translate(42,60)"/>
<path d="M0 0 C0.66 0.33 1.32 0.66 2 1 C1.34 4.3 0.68 7.6 0 11 C-0.66 10.67 -1.32 10.34 -2 10 C-2.25 3.375 -2.25 3.375 0 0 Z " fill="#FEE1E2" transform="translate(15,47)"/>
<path d="M0 0 C0.66 1.32 1.32 2.64 2 4 C1.34 4.66 0.68 5.32 0 6 C-2.1640625 5.9765625 -2.1640625 5.9765625 -4.625 5.625 C-5.44226562 5.51414062 -6.25953125 5.40328125 -7.1015625 5.2890625 C-7.72804687 5.19367187 -8.35453125 5.09828125 -9 5 C-9 4.67 -9 4.34 -9 4 C-7.88625 3.896875 -6.7725 3.79375 -5.625 3.6875 C-4.42875 3.460625 -3.2325 3.23375 -2 3 C-1.34 2.01 -0.68 1.02 0 0 Z " fill="#DC4442" transform="translate(50,36)"/>
<path d="M0 0 C0.33 0 0.66 0 1 0 C1 3.96 1 7.92 1 12 C0.67 12 0.34 12 0 12 C-0.33 9.69 -0.66 7.38 -1 5 C-2.98 4.34 -4.96 3.68 -7 3 C-7 2.67 -7 2.34 -7 2 C-4.69 2 -2.38 2 0 2 C0 1.34 0 0.68 0 0 Z " fill="#9B2D2E" transform="translate(30,28)"/>
<path d="M0 0 C2.21736634 1.10868317 4.03617993 2.49440461 6 4 C5.67 4.66 5.34 5.32 5 6 C2.03 5.505 2.03 5.505 -1 5 C-0.67 3.35 -0.34 1.7 0 0 Z " fill="#FEEBE4" transform="translate(40,64)"/>
<path d="M0 0 C2.64 0.66 5.28 1.32 8 2 C7.01 2.495 7.01 2.495 6 3 C6 4.32 6 5.64 6 7 C5.34 7 4.68 7 4 7 C3.67 5.35 3.34 3.7 3 2 C2.01 2 1.02 2 0 2 C0 1.34 0 0.68 0 0 Z " fill="#FDCFD5" transform="translate(37,41)"/>
<path d="M0 0 C0.33 0 0.66 0 1 0 C1.9765625 6.0546875 1.9765625 6.0546875 2 8 C1.34 8.66 0.68 9.32 0 10 C-1.32 9.34 -2.64 8.68 -4 8 C-2.68 7.34 -1.36 6.68 0 6 C0 4.02 0 2.04 0 0 Z " fill="#E9BDBB" transform="translate(29,33)"/>
<path d="M0 0 C4.29 0 8.58 0 13 0 C13 0.33 13 0.66 13 1 C10.02148438 1.34179688 10.02148438 1.34179688 7.04296875 1.68359375 C4.80603607 1.97170735 4.80603607 1.97170735 2 3 C2 2.34 2 1.68 2 1 C1.34 0.67 0.68 0.34 0 0 Z " fill="#A73539" transform="translate(20,66)"/>
<path d="M0 0 C0.99 0.66 1.98 1.32 3 2 C0.52224905 3.23887548 -1.23653707 3.16741669 -4 3.1875 C-5.3303125 3.20876953 -5.3303125 3.20876953 -6.6875 3.23046875 C-9 3 -9 3 -11 1 C-10.28972656 1.01160156 -9.57945313 1.02320313 -8.84765625 1.03515625 C-7.92855469 1.04417969 -7.00945313 1.05320313 -6.0625 1.0625 C-4.68771484 1.07990234 -4.68771484 1.07990234 -3.28515625 1.09765625 C-1.03406673 1.25949049 -1.03406673 1.25949049 0 0 Z " fill="#FFE1DB" transform="translate(28,59)"/>
<path d="M0 0 C0.99 0.66 1.98 1.32 3 2 C3.1875 4.625 3.1875 4.625 3 7 C1.35 7.33 -0.3 7.66 -2 8 C-1.34 7.34 -0.68 6.68 0 6 C0.16681109 2.91652174 0.16681109 2.91652174 0 0 Z " fill="#BA2D37" transform="translate(24,46)"/>
<path d="M0 0 C1.98 0.99 1.98 0.99 4 2 C3.67 3.98 3.34 5.96 3 8 C2.34 8 1.68 8 1 8 C0.67 5.36 0.34 2.72 0 0 Z " fill="#FADCDD" transform="translate(67,28)"/>
<path d="M0 0 C0.66 0.33 1.32 0.66 2 1 C1.38125 1.598125 0.7625 2.19625 0.125 2.8125 C-2.13676954 5.00811144 -2.13676954 5.00811144 -4 8 C-4.33 7.01 -4.66 6.02 -5 5 C-3.35 3.35 -1.7 1.7 0 0 Z " fill="#FCCED7" transform="translate(40,20)"/>
<path d="M0 0 C1.65 0 3.3 0 5 0 C5.33 1.65 5.66 3.3 6 5 C5.34 5 4.68 5 4 5 C4 4.01 4 3.02 4 2 C2.68 2 1.36 2 0 2 C0 1.34 0 0.68 0 0 Z " fill="#D0505B" transform="translate(41,70)"/>
<path d="M0 0 C0.99 0.33 1.98 0.66 3 1 C2.67 2.65 2.34 4.3 2 6 C1.34 6 0.68 6 0 6 C-1.125 2.25 -1.125 2.25 0 0 Z " fill="#FEDFDE" transform="translate(22,47)"/>
<path d="M0 0 C1.98 0.495 1.98 0.495 4 1 C3.34 2.32 2.68 3.64 2 5 C1.01 4.67 0.02 4.34 -1 4 C-0.67 2.68 -0.34 1.36 0 0 Z " fill="#FDF8F6" transform="translate(32,38)"/>
</svg>
